<svg width="115" height="24" viewBox="0 0 115 24" fill="none" xmlns="http://www.w3.org/2000/svg">
<path d="M100.451 6.92118L100.712 4.86048C101.668 4.64311 102.551 4.53442 103.359 4.53442C103.751 4.53442 104.107 4.54312 104.429 4.56051C104.759 4.56921 105.055 4.58224 105.316 4.59963V5.90389C106.507 5.06916 107.781 4.65181 109.137 4.65181C110.911 4.65181 112.198 5.16046 112.998 6.17777C113.806 7.18638 114.211 8.87321 114.211 11.2382C114.211 12.5077 114.024 13.625 113.65 14.5902C113.276 15.5466 112.767 16.2943 112.124 16.8334C110.889 17.8942 109.428 18.4246 107.742 18.4246C106.994 18.4246 106.298 18.3551 105.655 18.2159V20.5115C106.716 20.7983 107.394 21.1288 107.689 21.5026L107.428 23.5633H100.712L100.451 21.5026C100.677 21.1809 101.168 20.8765 101.924 20.5897V7.82111C101.29 7.61243 100.799 7.31246 100.451 6.92118ZM107.481 15.6988C108.367 15.6988 109.067 15.3031 109.58 14.5119C110.102 13.712 110.363 12.6164 110.363 11.2252C110.363 9.8253 110.22 8.86886 109.933 8.35587C109.646 7.84285 109.128 7.58636 108.381 7.58636C107.233 7.58636 106.324 7.85155 105.655 8.38194V15.4901C106.203 15.6292 106.811 15.6988 107.481 15.6988Z" fill="#575757"/>
<path d="M78.1538 6.92118L78.4145 4.86048C79.3711 4.64311 80.2536 4.53442 81.0622 4.53442C81.4535 4.53442 81.81 4.54312 82.1317 4.56051C82.4622 4.56921 82.7578 4.58224 83.0187 4.59963V5.92996C83.4447 5.57348 83.9751 5.27349 84.6098 5.03003C85.2532 4.77789 85.8357 4.65181 86.3575 4.65181C88.3834 4.65181 89.7355 5.15611 90.4137 6.16472C90.8571 5.73867 91.444 5.38218 92.1744 5.09525C92.9048 4.79961 93.583 4.65181 94.2091 4.65181C95.5133 4.65181 96.5262 4.83874 97.2479 5.21263C97.9695 5.58651 98.4696 6.22995 98.7478 7.14292C99.0347 8.04718 99.1782 9.30796 99.1782 10.9252V15.2553C99.8825 15.5249 100.369 15.8248 100.639 16.1553L100.378 18.2159H94.2352L93.9612 16.1553C94.2047 15.8161 94.696 15.5162 95.435 15.2553V9.96008C95.435 8.98624 95.3045 8.33847 95.0438 8.01676C94.835 7.75591 94.5047 7.59939 94.0525 7.54723C93.6003 7.49505 93.1134 7.54288 92.5918 7.6907C92.0701 7.82981 91.6005 8.06892 91.1832 8.40803C91.2788 9.05145 91.3266 9.89052 91.3266 10.9252V15.2553C92.0309 15.5249 92.5178 15.8248 92.7873 16.1553L92.5266 18.2159H86.3836L86.1097 16.1553C86.3531 15.8161 86.8444 15.5162 87.5834 15.2553V9.96008C87.5834 8.98624 87.4531 8.33847 87.1922 8.01676C86.9836 7.7646 86.6531 7.61243 86.2009 7.56027C85.7575 7.4994 85.275 7.53853 84.7532 7.67766C84.2402 7.81676 83.775 8.05153 83.3578 8.38194V15.2553C84.0533 15.5162 84.5446 15.8161 84.8316 16.1553L84.5707 18.2159H78.4145L78.1538 16.1553C78.3972 15.8161 78.8884 15.5162 79.6276 15.2553V7.82111C78.9928 7.61243 78.5015 7.31246 78.1538 6.92118Z" fill="#575757"/>
<path d="M73.0992 17.0945C71.8733 17.9813 70.4298 18.4249 68.7691 18.4249C67.0998 18.4249 65.9346 18.0814 65.2738 17.3945C64.6217 16.699 64.2956 15.5642 64.2956 13.9904V7.82134C63.6609 7.61266 63.1696 7.31267 62.8218 6.92141L63.0827 4.86069C64.0913 4.62593 65.0216 4.50854 65.8737 4.50854C66.2998 4.50854 66.6911 4.51724 67.0476 4.53463C67.404 4.54333 67.7301 4.56507 68.0257 4.59986V13.1166C68.0257 14.0817 68.1735 14.7164 68.4691 15.0208C68.7039 15.2642 69.0691 15.4164 69.5648 15.4773C70.0604 15.5294 70.5864 15.4859 71.1429 15.3468C71.7082 15.2077 72.2124 14.973 72.6558 14.6425V7.82134C72.0211 7.61266 71.5299 7.31267 71.182 6.92141L71.4559 4.86069C72.4472 4.62593 73.3731 4.50854 74.234 4.50854C74.66 4.50854 75.0513 4.51724 75.4078 4.53463C75.7642 4.54333 76.0903 4.56507 76.386 4.59986V15.0077C77.0033 15.1381 77.4946 15.2903 77.8598 15.4642V17.577C76.7817 18.1423 75.4383 18.4249 73.8296 18.4249C73.3775 18.1118 73.1341 17.6684 73.0992 17.0945Z" fill="#575757"/>
<path d="M48.9102 6.92118L49.171 4.86048C50.1275 4.64311 51.0101 4.53442 51.8187 4.53442C52.21 4.53442 52.5665 4.54312 52.8882 4.56051C53.2185 4.56921 53.5141 4.58224 53.775 4.59963V5.90389C54.9662 5.06916 56.2401 4.65181 57.5965 4.65181C59.3703 4.65181 60.657 5.16046 61.4571 6.17777C62.2657 7.18638 62.67 8.87321 62.67 11.2382C62.67 12.5077 62.4831 13.625 62.1091 14.5902C61.7353 15.5466 61.2267 16.2943 60.5832 16.8334C59.3486 17.8942 57.8877 18.4246 56.2009 18.4246C55.4531 18.4246 54.7576 18.3551 54.1141 18.2159V20.5115C55.1748 20.7983 55.8532 21.1288 56.1488 21.5026L55.8879 23.5633H49.171L48.9102 21.5026C49.1363 21.1809 49.6276 20.8765 50.384 20.5897V7.82111C49.7493 7.61243 49.258 7.31246 48.9102 6.92118ZM55.9401 15.6988C56.827 15.6988 57.5269 15.3031 58.0399 14.5119C58.5617 13.712 58.8224 12.6164 58.8224 11.2252C58.8224 9.8253 58.679 8.86886 58.3921 8.35587C58.1051 7.84285 57.5877 7.58636 56.8399 7.58636C55.6922 7.58636 54.7837 7.85155 54.1141 8.38194V15.4901C54.662 15.6292 55.2706 15.6988 55.9401 15.6988Z" fill="#575757"/>
<path d="M44.2603 7.37773C42.6257 7.37773 41.8084 8.78196 41.8084 11.5904C41.8084 13.0164 42.0344 14.012 42.4865 14.5772C42.9387 15.1336 43.5952 15.4119 44.456 15.4119C45.7864 15.4119 46.9776 15.2858 48.0296 15.0336L48.8382 17.0944C48.2643 17.4682 47.4948 17.7857 46.5298 18.0464C45.5734 18.2987 44.6385 18.4248 43.7256 18.4248C39.8824 18.4248 37.9609 16.1988 37.9609 11.747C37.9609 9.13846 38.6304 7.26905 39.9693 6.1387C41.1605 5.14748 42.6126 4.65186 44.3256 4.65186C46.0385 4.65186 47.4601 4.96922 48.5905 5.60396C48.5992 5.69091 48.6034 5.77786 48.6034 5.8648C48.6122 5.95176 48.6166 6.03436 48.6166 6.11261C48.6166 7.12992 48.3862 8.09071 47.9253 8.99499H45.5776C45.3255 8.54285 45.1733 8.01246 45.1212 7.40382C45.0081 7.39513 44.8777 7.39078 44.7299 7.39078C44.5908 7.38208 44.4343 7.37773 44.2603 7.37773Z" fill="#575757"/>
<path d="M18.9241 1.03137C19.2256 0.61765 18.9301 0.0366211 18.4181 0.0366211H9.93321C9.73313 0.0366211 9.54511 0.132251 9.42727 0.293944L0.000488281 13.229H9.71629C9.91637 13.229 10.1044 13.1334 10.2222 12.9717L18.9241 1.03137Z" fill="url(#paint0_linear_96_8069)"/>
<path d="M3.36806 13.3707C3.12787 12.9533 3.42913 12.4324 3.91066 12.4324H12.5003C12.7242 12.4324 12.9312 12.552 13.0429 12.7462L18.9791 23.0618C19.2194 23.4791 18.9181 24 18.4366 24H9.84695C9.62297 24 9.41606 23.8803 9.30434 23.6863L3.36806 13.3707Z" fill="url(#paint1_linear_96_8069)"/>
<path d="M14.9101 19.4307C14.5558 19.8355 14.8432 20.4693 15.3812 20.4693H23.7512C23.9318 20.4693 24.1035 20.3914 24.2224 20.2556L32.9947 10.2346H22.9606L14.9101 19.4307Z" fill="url(#paint2_linear_96_8069)"/>
<path d="M30.3132 9.26721C30.584 9.68367 30.2852 10.2346 29.7884 10.2346H21.2477C21.036 10.2346 20.8386 10.1275 20.7231 9.94988L14.8806 0.967377C14.6097 0.550914 14.9086 0 15.4054 0H23.946C24.1577 0 24.3552 0.107122 24.4707 0.284697L30.3132 9.26721Z" fill="url(#paint3_linear_96_8069)"/>
<defs>
<linearGradient id="paint0_linear_96_8069" x1="13.9687" y1="0.0366218" x2="1.96571" y2="19.2106" gradientUnits="userSpaceOnUse">
<stop stop-color="#FF9211"/>
<stop offset="1" stop-color="#DC7903"/>
</linearGradient>
<linearGradient id="paint1_linear_96_8069" x1="4.02982" y1="4.83855" x2="13.4596" y2="22.3064" gradientUnits="userSpaceOnUse">
<stop offset="0.394093" stop-color="#E77E00"/>
<stop offset="1" stop-color="#FF9211"/>
</linearGradient>
<linearGradient id="paint2_linear_96_8069" x1="27.6861" y1="10.7173" x2="1.73493" y2="34.1126" gradientUnits="userSpaceOnUse">
<stop stop-color="#F88D0E"/>
<stop offset="1" stop-color="#E58007"/>
</linearGradient>
<linearGradient id="paint3_linear_96_8069" x1="19.9918" y1="-6.85105e-09" x2="27.2339" y2="10.2346" gradientUnits="userSpaceOnUse">
<stop stop-color="#E58007"/>
<stop offset="1" stop-color="#FC9010"/>
</linearGradient>
</defs>
</svg>
