<svg width="390" height="180" viewBox="0 0 390 180" fill="none" xmlns="http://www.w3.org/2000/svg">
<rect x="0.160156" y="20.1925" width="389.55" height="159.035" rx="15" fill="#F7F7F7"/>
<path d="M39.6477 106.728H35.3521L22.9141 156.904H52.0857L39.6477 106.728Z" fill="#FF9700"/>
<path d="M59 156.736H16V163.728H59V156.736Z" fill="#FFBB61"/>
<path d="M49.6481 147.056L47.3787 137.919H27.6213L25.3582 147.056H49.6481Z" fill="#D9E3E9"/>
<path d="M43.3824 121.784L41.5182 114.256H33.4881L31.6177 121.784H43.3824Z" fill="#D9E3E9"/>
<path d="M35.1687 128.015C87.9558 143.659 244.106 156.151 337.141 128.015" stroke="#FF9700" stroke-width="6"/>
<g clip-path="url(#clip0_278_442)">
<path d="M343.07 106.728H338.774L326.336 156.904H355.508L343.07 106.728Z" fill="#FF9700"/>
<path d="M362.422 156.736H319.422V163.728H362.422V156.736Z" fill="#FFBB61"/>
<path d="M353.07 147.056L350.801 137.919H331.043L328.78 147.056H353.07Z" fill="#D9E3E9"/>
<path d="M346.804 121.784L344.94 114.256H336.91L335.04 121.784H346.804Z" fill="#D9E3E9"/>
</g>
<path d="M203.897 5.41232C205.375 3.38398 203.927 0.5354 201.416 0.5354H159.818C158.837 0.5354 157.915 1.00424 157.338 1.79696L111.121 65.213H158.755C159.735 65.213 160.657 64.7442 161.235 63.9515L203.897 5.41232Z" fill="url(#paint0_linear_278_442)"/>
<path d="M127.63 65.9074C126.453 63.8613 127.93 61.3074 130.29 61.3074H172.402C173.5 61.3074 174.515 61.894 175.062 62.8457L204.166 113.42C205.344 115.466 203.867 118.02 201.506 118.02H159.394C158.296 118.02 157.281 117.433 156.734 116.481L127.63 65.9074Z" fill="url(#paint1_linear_278_442)"/>
<path d="M186.528 100.209C184.32 100.209 183.14 97.6081 184.594 95.9467L220.478 54.9571C222.661 52.4627 225.815 51.032 229.131 51.032H266.267C268.416 51.032 269.563 53.5623 268.149 55.1787L229.497 99.3318C229.497 99.3319 229.497 99.3319 229.497 99.3319C229.009 99.8892 228.304 100.209 227.563 100.209H186.528Z" fill="white" stroke="black"/>
<path d="M259.733 45.7897C261.061 47.8315 259.595 50.5324 257.16 50.5324H215.288C214.25 50.5324 213.282 50.0072 212.716 49.1366L184.072 5.09855C182.744 3.05677 184.209 0.355835 186.645 0.355835H228.517C229.555 0.355835 230.523 0.881018 231.089 1.75161L259.733 45.7897Z" fill="url(#paint2_linear_278_442)"/>
<defs>
<linearGradient id="paint0_linear_278_442" x1="179.603" y1="0.535404" x2="120.756" y2="94.5385" gradientUnits="userSpaceOnUse">
<stop stop-color="#FF9211"/>
<stop offset="1" stop-color="#DC7903"/>
</linearGradient>
<linearGradient id="paint1_linear_278_442" x1="130.875" y1="24.0775" x2="177.105" y2="109.716" gradientUnits="userSpaceOnUse">
<stop offset="0.394093" stop-color="#E77E00"/>
<stop offset="1" stop-color="#FF9211"/>
</linearGradient>
<linearGradient id="paint2_linear_278_442" x1="209.131" y1="0.355835" x2="244.636" y2="50.5324" gradientUnits="userSpaceOnUse">
<stop stop-color="#E58007"/>
<stop offset="1" stop-color="#FC9010"/>
</linearGradient>
<clipPath id="clip0_278_442">
<rect width="43" height="57" fill="white" transform="translate(319.422 106.728)"/>
</clipPath>
</defs>
</svg>
