<svg width="27" height="20" viewBox="0 0 27 20" fill="none" xmlns="http://www.w3.org/2000/svg">
<path d="M7.78216 5.95007C8.10728 5.08656 9.32876 5.08656 9.65388 5.95008L10.7514 8.86491C10.8542 9.13802 11.0712 9.35259 11.3455 9.45233L14.262 10.513C15.1396 10.8321 15.1396 12.0734 14.262 12.3925L11.3455 13.4532C11.0712 13.5529 10.8542 13.7675 10.7514 14.0406L9.65388 16.9554C9.32875 17.8189 8.10728 17.8189 7.78216 16.9554L6.68468 14.0406C6.58185 13.7675 6.36484 13.5529 6.09058 13.4532L3.17405 12.3925C2.29641 12.0734 2.29641 10.8321 3.17405 10.513L6.09058 9.45233C6.36484 9.35259 6.58185 9.13802 6.68468 8.86491L7.78216 5.95007Z" fill="white"/>
<path d="M20.9663 1.88892C21.1288 1.45716 21.7396 1.45716 21.9021 1.88892L22.5924 3.72217C22.6438 3.85873 22.7523 3.96601 22.8894 4.01588L24.7301 4.68527C25.1689 4.84485 25.1689 5.46547 24.7301 5.62506L22.8894 6.29445C22.7523 6.34432 22.6438 6.4516 22.5924 6.58816L21.9021 8.42141C21.7396 8.85316 21.1288 8.85316 20.9663 8.42141L20.276 6.58816C20.2246 6.4516 20.1161 6.34432 19.979 6.29445L18.1383 5.62506C17.6995 5.46547 17.6995 4.84485 18.1383 4.68527L19.979 4.01588C20.1161 3.96601 20.2246 3.85873 20.276 3.72217L20.9663 1.88892Z" fill="white"/>
</svg>
