<svg width="21" height="15" viewBox="0 0 21 15" fill="none" xmlns="http://www.w3.org/2000/svg">
<path d="M12.3372 0.967187C12.5219 0.726655 12.3409 0.388855 12.0271 0.388855H6.82799C6.7054 0.388855 6.59018 0.444452 6.51798 0.538458L0.741697 8.05869H6.69508C6.81768 8.05869 6.93289 8.00309 7.00509 7.90909L12.3372 0.967187Z" fill="white"/>
<path d="M2.80511 8.14029C2.65794 7.89765 2.84253 7.59479 3.1376 7.59479H8.40089C8.53814 7.59479 8.66492 7.66435 8.73338 7.77721L12.3708 13.7746C12.5181 14.0172 12.3334 14.32 12.0384 14.32H6.77506C6.63782 14.32 6.51104 14.2504 6.44258 14.1376L2.80511 8.14029Z" fill="#FFF9F2"/>
<path d="M9.8777 11.6636C9.66059 11.8989 9.83671 12.2674 10.1663 12.2674H15.2951C15.4058 12.2674 15.5109 12.2221 15.5838 12.1432L20.9591 6.31714H14.8107L9.8777 11.6636Z" fill="white"/>
<path d="M19.3157 5.75535C19.4816 5.99748 19.2985 6.31777 18.9941 6.31777H13.7608C13.631 6.31777 13.5101 6.25549 13.4393 6.15225L9.8593 0.929971C9.69332 0.687846 9.87645 0.367554 10.1809 0.367554H15.4142C15.5439 0.367554 15.6649 0.429833 15.7357 0.533072L19.3157 5.75535Z" fill="white"/>
</svg>
