<svg width="29" height="25" viewBox="0 0 29 25" fill="none" xmlns="http://www.w3.org/2000/svg">
<path d="M26.5276 0.219472C26.5276 0.219472 29.2106 -0.859298 28.9867 1.76653C28.9121 2.84898 28.2416 6.63816 27.7204 10.7363L25.9317 22.8724C25.9317 22.8724 25.7825 24.6512 24.4415 24.9564C23.1006 25.2617 21.088 23.874 20.7161 23.5651C20.4176 23.3334 15.1273 19.8531 13.264 18.1528C13.0678 18.0132 12.9087 17.8249 12.8012 17.6051C12.6937 17.3853 12.6412 17.1411 12.6487 16.8948C12.6561 16.6486 12.7231 16.4082 12.8437 16.1958C12.9642 15.9834 13.1344 15.8057 13.3386 15.679L21.1627 7.94617C22.057 7.01818 22.9514 4.85328 19.2247 7.48279L8.79223 14.8319C8.25538 15.0834 7.67493 15.2199 7.08578 15.2331C6.49664 15.2464 5.911 15.1362 5.36409 14.9091L0.520391 13.3609C0.520391 13.3609 -1.26831 12.2012 1.78669 11.0415C9.23999 7.41046 18.405 3.69973 26.5276 0.219472Z" fill="#FF9211"/>
</svg>
